<?xml version="1.0" encoding="iso-8859-1"?>
<!-- Generator: Adobe Illustrator 19.0.0, SVG Export Plug-In . SVG Version: 6.00 Build 0)  -->
<svg xmlns="http://www.w3.org/2000/svg" xmlns:xlink="http://www.w3.org/1999/xlink" version="1.1" id="Capa_1" x="0px" y="0px" viewBox="0 0 368 368" style="enable-background:new 0 0 368 368;" xml:space="preserve" width="512px" height="512px">
<g>
	<g>
		<path d="M336,288.808v-33.616c18.232-3.72,32-19.88,32-39.192c0-22.056-17.944-40-40-40c-14.552,0-27.56,7.848-34.552,20.072    l-69.832-23.328C223.8,171.176,224,169.608,224,168c0-21-16.328-38.088-36.92-39.688l-6.264-50.464    C196.736,72.432,208,57.368,208,40c0-22.056-17.944-40-40-40c-22.056,0-40,17.944-40,40c0,3.528,0.52,7.016,1.432,10.376    L71.36,79.344C63.904,69.768,52.52,64,40,64C17.944,64,0,81.944,0,104c0,22.056,17.944,40,40,40c22.056,0,40-17.944,40-40    c0-3.536-0.52-7.032-1.424-10.376l58.064-28.968c6.832,8.784,16.992,14.272,28.296,15.128l6.248,50.368    C155.256,135.568,144,150.632,144,168c0,22.056,17.944,40,40,40c14.584,0,27.624-7.88,34.576-20.072l69.816,23.32    C288.2,212.824,288,214.392,288,216c0,19.312,13.768,35.472,32,39.192v33.616c-18.232,3.72-32,19.872-32,39.192    c0,22.056,17.944,40,40,40c22.056,0,40-17.944,40-40C368,308.688,354.232,292.528,336,288.808z M40,128c-13.232,0-24-10.768-24-24    s10.768-24,24-24c9.144,0,17.344,5.072,21.456,13.36C63.144,96.616,64,100.192,64,104C64,117.232,53.232,128,40,128z     M171.008,63.824C170.04,63.944,169.024,64,168,64c-9.144,0-17.344-5.072-21.392-13.232c0-0.008-0.008-0.008-0.008-0.016    c-0.016-0.04-0.04-0.072-0.056-0.112C144.856,47.384,144,43.808,144,40c0-13.232,10.768-24,24-24s24,10.768,24,24    C192,52.064,182.968,62.304,171.008,63.824z M206.72,175.592C203.504,185.408,194.376,192,184,192c-13.232,0-24-10.768-24-24    c0-12.064,9.032-22.304,21.008-23.824c0.96-0.12,1.976-0.176,2.992-0.176c13.232,0,24,10.768,24,24    C208,170.592,207.584,173.096,206.72,175.592z M304,216c0-2.592,0.416-5.096,1.232-7.44c0.016-0.048,0.032-0.096,0.048-0.152    C308.496,198.592,317.624,192,328,192c13.232,0,24,10.768,24,24s-10.768,24-24,24S304,229.232,304,216z M328,352    c-13.232,0-24-10.768-24-24s10.768-24,24-24s24,10.768,24,24S341.232,352,328,352z" fill="#006DF0"/>
	</g>
</g>
<g>
</g>
<g>
</g>
<g>
</g>
<g>
</g>
<g>
</g>
<g>
</g>
<g>
</g>
<g>
</g>
<g>
</g>
<g>
</g>
<g>
</g>
<g>
</g>
<g>
</g>
<g>
</g>
<g>
</g>
</svg>
