<?xml version="1.0" encoding="iso-8859-1"?>
<!-- Generator: Adobe Illustrator 19.0.0, SVG Export Plug-In . SVG Version: 6.00 Build 0)  -->
<svg xmlns="http://www.w3.org/2000/svg" xmlns:xlink="http://www.w3.org/1999/xlink" version="1.1" id="Capa_1" x="0px" y="0px" viewBox="0 0 511.999 511.999" style="enable-background:new 0 0 511.999 511.999;" xml:space="preserve" width="512px" height="512px">
<g>
	<g>
		<path d="M140.927,142.474H37.508C16.826,142.474,0,159.3,0,179.983V302.01c0,12.41,10.095,22.505,22.505,22.505    c2.63,0,5.154-0.458,7.502-1.29v140.472c0,14.256,11.599,25.855,25.855,25.855s25.855-11.599,25.855-25.855V310.012H96.72v153.685    c0,14.256,11.599,25.855,25.855,25.855s25.855-11.599,25.855-25.855V323.301c2.338,0.784,4.858,1.213,7.502,1.213    c12.62,0,22.505-9.666,22.505-22.005V179.983C178.436,159.3,161.61,142.474,140.927,142.474z M163.432,302.51    c0,3.992-3.225,7.002-7.502,7.002s-7.502-3.01-7.502-7.002V194.986c0-4.143-3.359-7.502-7.502-7.502    c-4.143,0-7.502,3.359-7.502,7.502v268.711c0,5.983-4.868,10.851-10.851,10.851c-5.983,0-10.851-4.868-10.851-10.851V302.51    c0-4.143-3.359-7.502-7.502-7.502H74.215c-4.143,0-7.502,3.359-7.502,7.502v161.187c0,5.983-4.868,10.851-10.851,10.851    S45.01,469.68,45.01,463.697V194.986c0-4.143-3.359-7.502-7.502-7.502s-7.502,3.359-7.502,7.502V302.01    c0,4.137-3.365,7.502-7.502,7.502c-4.137,0-7.502-3.365-7.502-7.502V179.983c0-12.41,10.095-22.505,22.505-22.505h103.419    c12.41,0,22.505,10.095,22.505,22.505V302.51z" fill="#006DF0"/>
	</g>
</g>
<g>
	<g>
		<path d="M474.492,142.474H192.884c-4.143,0-7.502,3.359-7.502,7.502c0,4.143,3.359,7.502,7.502,7.502h14.755    c12.41,0,22.505,10.095,22.505,22.505V302.51c0,3.992-3.225,7.002-7.502,7.002c-4.277,0-7.502-3.01-7.502-7.002V194.986    c0-4.143-3.359-7.502-7.502-7.502c-4.143,0-7.502,3.359-7.502,7.502v268.711c0,5.983-4.868,10.851-10.851,10.851    c-5.983,0-10.851-4.868-10.851-10.851v-119.23c0-4.143-3.359-7.502-7.502-7.502c-4.143,0-7.502,3.359-7.502,7.502v119.23    c0,14.256,11.599,25.855,25.855,25.855c14.256,0,25.855-11.599,25.855-25.855V323.301c2.338,0.784,4.858,1.213,7.502,1.213    s5.164-0.429,7.502-1.213v140.395c0,14.256,11.599,25.855,25.855,25.855c14.256,0,25.855-11.599,25.855-25.855V323.301    c2.338,0.784,4.858,1.213,7.502,1.213c2.644,0,5.164-0.429,7.502-1.213v140.395c0,14.256,11.599,25.855,25.855,25.855    s25.855-11.599,25.855-25.855V323.301c2.338,0.784,4.858,1.213,7.502,1.213s5.164-0.429,7.502-1.213v140.395    c0,14.256,11.599,25.855,25.855,25.855s25.855-11.599,25.855-25.855V323.301c2.338,0.784,4.858,1.213,7.502,1.213    c2.644,0,5.164-0.429,7.502-1.213v140.395c0,14.256,11.599,25.855,25.855,25.855s25.855-11.599,25.855-25.855V323.301    c2.338,0.784,4.858,1.213,7.502,1.213c12.62,0,22.505-9.666,22.505-22.005V179.983C512,159.3,495.173,142.474,474.492,142.474z     M296.859,302.51c-0.001,3.992-3.226,7.002-7.503,7.002c-4.277,0-7.502-3.01-7.502-7.002V194.986c0-4.143-3.359-7.502-7.502-7.502    s-7.502,3.359-7.502,7.502v268.711c0,5.983-4.868,10.851-10.851,10.851c-5.983,0-10.851-4.868-10.851-10.851V179.983    c0-8.438-2.802-16.232-7.522-22.505h36.727c12.41,0,22.505,10.095,22.505,22.505V302.51z M363.571,302.51    c0,3.992-3.225,7.002-7.502,7.002s-7.502-3.01-7.502-7.002V194.986c0-4.143-3.359-7.502-7.502-7.502    c-4.143,0-7.502,3.359-7.502,7.502v268.711c0,5.983-4.868,10.851-10.851,10.851c-5.983,0-10.851-4.868-10.851-10.851V179.983    c0-8.438-2.802-16.232-7.522-22.505h36.726c12.41,0,22.505,10.095,22.505,22.505V302.51z M430.285,302.51    c-0.001,3.992-3.226,7.002-7.503,7.002c-4.277,0-7.502-3.01-7.502-7.002V194.986c0-4.143-3.359-7.502-7.502-7.502    c-4.143,0-7.502,3.359-7.502,7.502v268.711c0,5.983-4.868,10.851-10.851,10.851s-10.851-4.868-10.851-10.851V179.983    c0-8.438-2.802-16.232-7.522-22.505h36.727c12.41,0,22.505,10.095,22.505,22.505V302.51z M496.997,302.51    c0,3.992-3.225,7.002-7.502,7.002c-4.277,0-7.502-3.01-7.502-7.002V194.986c0-4.143-3.359-7.502-7.502-7.502    s-7.502,3.359-7.502,7.502v268.711c0,5.983-4.868,10.851-10.851,10.851s-10.851-4.868-10.851-10.851V179.983    c0-8.438-2.802-16.232-7.522-22.505h36.726c12.41,0,22.505,10.095,22.505,22.505V302.51z" fill="#006DF0"/>
	</g>
</g>
<g>
	<g>
		<path d="M422.782,22.447c-12.221,0-24.02,4.304-33.361,11.982c-9.076-7.482-20.699-11.982-33.351-11.982    c-12.221,0-24.02,4.303-33.36,11.982c-9.076-7.482-20.699-11.982-33.351-11.982c-12.221,0-24.02,4.304-33.361,11.982    c-9.076-7.482-20.699-11.982-33.351-11.982c-12.221,0-24.02,4.303-33.36,11.982c-9.076-7.482-20.699-11.982-33.351-11.982    c-12.221,0-24.02,4.304-33.361,11.982c-9.076-7.482-20.699-11.982-33.351-11.982c-28.955,0-52.512,23.556-52.512,52.512    s23.554,52.512,52.51,52.512c12.654,0,24.275-4.5,33.351-11.982c9.341,7.678,21.141,11.982,33.361,11.982    c12.654,0,24.275-4.499,33.351-11.982c9.341,7.678,21.14,11.982,33.36,11.982c12.654,0,24.276-4.5,33.352-11.982    c9.341,7.678,21.14,11.982,33.361,11.982c12.654,0,24.275-4.499,33.351-11.982c9.341,7.678,21.14,11.982,33.36,11.982    c12.654,0,24.276-4.5,33.352-11.982c9.341,7.678,21.14,11.982,33.361,11.982c28.956,0,52.512-23.556,52.512-52.512    S451.738,22.447,422.782,22.447z M89.218,112.468c-20.683,0-37.508-16.826-37.508-37.508s16.826-37.508,37.508-37.508    s37.508,16.826,37.508,37.508S109.9,112.468,89.218,112.468z M155.931,112.468c-8.474,0-16.666-2.897-23.242-8.084    c5.703-8.399,9.041-18.529,9.041-29.425c0-10.895-3.338-21.026-9.041-29.425c6.577-5.187,14.768-8.084,23.242-8.084    c20.683,0,37.508,16.826,37.508,37.508S176.613,112.468,155.931,112.468z M222.644,112.468c-8.474,0-16.665-2.897-23.241-8.084    c5.703-8.399,9.041-18.529,9.041-29.425c0-10.895-3.338-21.026-9.041-29.425c6.576-5.187,14.768-8.084,23.242-8.084    c20.681,0,37.507,16.826,37.507,37.508S243.326,112.468,222.644,112.468z M289.356,112.468c-8.474,0-16.665-2.897-23.242-8.084    c5.703-8.399,9.041-18.529,9.041-29.425c0-10.895-3.338-21.026-9.041-29.425c6.577-5.187,14.768-8.084,23.242-8.084    c20.683,0,37.508,16.826,37.508,37.508S310.039,112.468,289.356,112.468z M356.069,112.468c-8.474,0-16.665-2.897-23.241-8.084    c5.703-8.399,9.041-18.529,9.041-29.425c0-10.895-3.338-21.026-9.041-29.425c6.576-5.187,14.768-8.084,23.242-8.084    c20.681,0,37.507,16.826,37.507,37.508S376.752,112.468,356.069,112.468z M422.782,112.468c-8.474,0-16.665-2.897-23.242-8.084    c5.703-8.399,9.041-18.529,9.041-29.425c0-10.895-3.338-21.026-9.041-29.425c6.577-5.187,14.768-8.084,23.242-8.084    c20.683,0,37.508,16.826,37.508,37.508S443.465,112.468,422.782,112.468z" fill="#006DF0"/>
	</g>
</g>
<g>
</g>
<g>
</g>
<g>
</g>
<g>
</g>
<g>
</g>
<g>
</g>
<g>
</g>
<g>
</g>
<g>
</g>
<g>
</g>
<g>
</g>
<g>
</g>
<g>
</g>
<g>
</g>
<g>
</g>
</svg>
